<svg xmlns="http://www.w3.org/2000/svg" viewBox="0 0 200 200" fill="none">
  <!-- 5 cookies: 3 top row, 2 bottom row -->
  <g transform="translate(5,5) scale(0.45)">
    <ellipse cx="30" cy="18" rx="12" ry="22" fill="#F5E6D0" stroke="#C4956A" stroke-width="2"/>
    <ellipse cx="70" cy="18" rx="12" ry="22" fill="#F5E6D0" stroke="#C4956A" stroke-width="2"/>
    <ellipse cx="30" cy="18" rx="7" ry="16" fill="#FFB3C8" opacity="0.7"/>
    <ellipse cx="70" cy="18" rx="7" ry="16" fill="#FFB3C8" opacity="0.7"/>
    <circle cx="50" cy="75" r="48" fill="#F5E6D0" stroke="#C4956A" stroke-width="2"/>
    <circle cx="37" cy="68" r="3.5" fill="#5C3317"/><circle cx="63" cy="68" r="3.5" fill="#5C3317"/>
    <ellipse cx="50" cy="78" rx="4" ry="2.5" fill="#FFB3C8"/>
    <path d="M43 84 Q50 90 57 84" stroke="#5C3317" stroke-width="2" fill="none" stroke-linecap="round"/>
    <circle cx="34" cy="78" r="7" fill="#FF9EB5" opacity="0.4"/><circle cx="66" cy="78" r="7" fill="#FF9EB5" opacity="0.4"/>
  </g>
  <g transform="translate(68,5) scale(0.45)">
    <ellipse cx="30" cy="18" rx="12" ry="22" fill="#F5E6D0" stroke="#C4956A" stroke-width="2"/>
    <ellipse cx="70" cy="18" rx="12" ry="22" fill="#F5E6D0" stroke="#C4956A" stroke-width="2"/>
    <ellipse cx="30" cy="18" rx="7" ry="16" fill="#FFB3C8" opacity="0.7"/>
    <ellipse cx="70" cy="18" rx="7" ry="16" fill="#FFB3C8" opacity="0.7"/>
    <circle cx="50" cy="75" r="48" fill="#F5E6D0" stroke="#C4956A" stroke-width="2"/>
    <circle cx="37" cy="68" r="3.5" fill="#5C3317"/><circle cx="63" cy="68" r="3.5" fill="#5C3317"/>
    <ellipse cx="50" cy="78" rx="4" ry="2.5" fill="#FFB3C8"/>
    <path d="M43 84 Q50 90 57 84" stroke="#5C3317" stroke-width="2" fill="none" stroke-linecap="round"/>
    <circle cx="34" cy="78" r="7" fill="#FF9EB5" opacity="0.4"/><circle cx="66" cy="78" r="7" fill="#FF9EB5" opacity="0.4"/>
  </g>
  <g transform="translate(131,5) scale(0.45)">
    <ellipse cx="30" cy="18" rx="12" ry="22" fill="#F5E6D0" stroke="#C4956A" stroke-width="2"/>
    <ellipse cx="70" cy="18" rx="12" ry="22" fill="#F5E6D0" stroke="#C4956A" stroke-width="2"/>
    <ellipse cx="30" cy="18" rx="7" ry="16" fill="#FFB3C8" opacity="0.7"/>
    <ellipse cx="70" cy="18" rx="7" ry="16" fill="#FFB3C8" opacity="0.7"/>
    <circle cx="50" cy="75" r="48" fill="#F5E6D0" stroke="#C4956A" stroke-width="2"/>
    <circle cx="37" cy="68" r="3.5" fill="#5C3317"/><circle cx="63" cy="68" r="3.5" fill="#5C3317"/>
    <ellipse cx="50" cy="78" rx="4" ry="2.5" fill="#FFB3C8"/>
    <path d="M43 84 Q50 90 57 84" stroke="#5C3317" stroke-width="2" fill="none" stroke-linecap="round"/>
    <circle cx="34" cy="78" r="7" fill="#FF9EB5" opacity="0.4"/><circle cx="66" cy="78" r="7" fill="#FF9EB5" opacity="0.4"/>
  </g>
  <g transform="translate(36,95) scale(0.45)">
    <ellipse cx="30" cy="18" rx="12" ry="22" fill="#F5E6D0" stroke="#C4956A" stroke-width="2"/>
    <ellipse cx="70" cy="18" rx="12" ry="22" fill="#F5E6D0" stroke="#C4956A" stroke-width="2"/>
    <ellipse cx="30" cy="18" rx="7" ry="16" fill="#FFB3C8" opacity="0.7"/>
    <ellipse cx="70" cy="18" rx="7" ry="16" fill="#FFB3C8" opacity="0.7"/>
    <circle cx="50" cy="75" r="48" fill="#F5E6D0" stroke="#C4956A" stroke-width="2"/>
    <circle cx="37" cy="68" r="3.5" fill="#5C3317"/><circle cx="63" cy="68" r="3.5" fill="#5C3317"/>
    <ellipse cx="50" cy="78" rx="4" ry="2.5" fill="#FFB3C8"/>
    <path d="M43 84 Q50 90 57 84" stroke="#5C3317" stroke-width="2" fill="none" stroke-linecap="round"/>
    <circle cx="34" cy="78" r="7" fill="#FF9EB5" opacity="0.4"/><circle cx="66" cy="78" r="7" fill="#FF9EB5" opacity="0.4"/>
  </g>
  <g transform="translate(100,95) scale(0.45)">
    <ellipse cx="30" cy="18" rx="12" ry="22" fill="#F5E6D0" stroke="#C4956A" stroke-width="2"/>
    <ellipse cx="70" cy="18" rx="12" ry="22" fill="#F5E6D0" stroke="#C4956A" stroke-width="2"/>
    <ellipse cx="30" cy="18" rx="7" ry="16" fill="#FFB3C8" opacity="0.7"/>
    <ellipse cx="70" cy="18" rx="7" ry="16" fill="#FFB3C8" opacity="0.7"/>
    <circle cx="50" cy="75" r="48" fill="#F5E6D0" stroke="#C4956A" stroke-width="2"/>
    <circle cx="37" cy="68" r="3.5" fill="#5C3317"/><circle cx="63" cy="68" r="3.5" fill="#5C3317"/>
    <ellipse cx="50" cy="78" rx="4" ry="2.5" fill="#FFB3C8"/>
    <path d="M43 84 Q50 90 57 84" stroke="#5C3317" stroke-width="2" fill="none" stroke-linecap="round"/>
    <circle cx="34" cy="78" r="7" fill="#FF9EB5" opacity="0.4"/><circle cx="66" cy="78" r="7" fill="#FF9EB5" opacity="0.4"/>
  </g>
  <rect x="55" y="165" width="90" height="24" rx="12" fill="#F9A8D4"/>
  <text x="100" y="182" text-anchor="middle" font-family="sans-serif" font-size="12" font-weight="bold" fill="#7C3527">5 Bunnies</text>
</svg>
